# xmcd
#
# Track frame offsets:
# 150
# 16515
# 34280
# 51442
# 68207
# 82475
# 96932
# 110920
# 124507
# 141982
# 159034
# 176959
#
# Disc length: 2580 seconds
#
#
# Revision: 0
# Processed by: cddbd v1.5.2PL0 Copyright (c) Steve Scherf et al.
# Submitted via: FreeRIP 2.945 
#
DISCID=aa0a120c
DTITLE=ANA BARBARA - NO ES BRUJERIA
DYEAR=1900
DGENRE=
TTITLE0=MI AMOR PIDE MAS
TTITLE1=LA TRISTEZA ME LLEGO
TTITLE2=NO ES BRUJERIA
TTITLE3=NO PIDAS PERDON
TTITLE4=SI TU SUPIERAS
TTITLE5=VETE
TTITLE6=NO TE DEJARE
TTITLE7=SOLO MIO
TTITLE8=DOS ABRAZOS
TTITLE9=LLORAR QUEDITO
TTITLE10=NO ES BRUJERIA (VERSION NORTEÑA)
TTITLE11=NO ES BRUJERIA (VERSION ACUSTICA)
EXTD=
EXTT0=
EXTT1=
EXTT2=
EXTT3=
EXTT4=
EXTT5=
EXTT6=
EXTT7=
EXTT8=
EXTT9=
EXTT10=
EXTT11=
PLAYORDER=
